<svg id="SvgjsSvg1001" width="288" height="288" xmlns="http://www.w3.org/2000/svg" version="1.1" xmlns:xlink="http://www.w3.org/1999/xlink" xmlns:svgjs="http://svgjs.com/svgjs"><defs id="SvgjsDefs1002"></defs><g id="SvgjsG1008" transform="matrix(0.9167,0,0,0.9167,11.995200000000011,11.995198728942881)"><svg xmlns="http://www.w3.org/2000/svg" viewBox="0 0 32 32" width="288" height="288"><path fill="#4597ff" d="M19,2H5A3,3,0,0,0,2,5V19A3,3,0,0,0,5,22a2.91,2.91,0,0,0,1.81-.64L8.41,20H11a1,1,0,0,0,1-1V13a1,1,0,0,1,1-1h8a1,1,0,0,0,1-1V5A3,3,0,0,0,19,2Z" class="color469b81 svgShape"></path><path fill="#45c2f4" d="M27,10H13a3,3,0,0,0-3,3V25a3,3,0,0,0,3,3H23.59l1.65,1.31A2.91,2.91,0,0,0,27,30,3,3,0,0,0,30,27V13A3,3,0,0,0,27,10Z" class="color71d3b2 svgShape"></path><path fill="#4597ff" d="M24 17H16a1 1 0 0 1 0-2h8a1 1 0 0 1 0 2zM24 23H16a1 1 0 0 1 0-2h8a1 1 0 0 1 0 2z" class="color469b81 svgShape"></path></svg></g></svg>